PathFileType	4	(X/Y/Z)	3_coords_data.trc
DataRate	CameraRate	NumFrames	NumMarkers	Units	OrigDataRate	OrigDataStartFrame	OrigNumFrames
30.0	30.0	7	21	m	30.0	11	71
Frame#	Time	THUMB_TIP	THUMB_IP	THUMB_MCP	THUMB_CMC	INDEX_TIP	INDEX_DIP	INDEX_PIP	INDEX_MCP	MIDDLE_TIP	MIDDLE_DIP	MIDDLE_PIP	MIDDLE_MCP	RING_TIP	RING_DIP	RING_PIP	RING_MCP	PINKY_TIP	PINKY_DIP	PINKY_PIP	PINKY_MCP	WRIST
X1	Y1	Z1	X2	Y2	Z2	X3	Y3	Z3	X4	Y4	Z4	X5	Y5	Z5	X6	Y6	Z6	X7	Y7	Z7	X8	Y8	Z8	X9	Y9	Z9	X10	Y10	Z10	X11	Y11	Z11	X12	Y12	Z12	X13	Y13	Z13	X14	Y14	Z14	X15	Y15	Z15	X16	Y16	Z16	X17	Y17	Z17	X18	Y18	Z18	X19	Y19	Z19	X20	Y20	Z20	X21	Y21	Z21
10	0.3333333333333333	-0.09811990356445313	-0.07360540008544922	0.9806580200195313	-0.1196500015258789	-0.07552030181884765	0.9739530029296875	-0.14018899536132812	-0.05830030059814453	0.9820490112304687	-0.13379100036621094	-0.03313890075683594	0.9995130004882813	-0.13047700500488282	-0.11786900329589843	0.90718701171875	-0.130906005859375	-0.09787239837646484	0.916385986328125	-0.1309199981689453	-0.07596970367431641	0.9267119750976562	-0.1287790069580078	-0.038514900207519534	0.9439710083007813	-0.11435800170898437	-0.06294219970703124	0.9687949829101562	-0.10798699951171875	-0.07998090362548828	0.9574929809570313	-0.10521499633789062	-0.07420580291748047	0.9324140014648438	-0.10587400054931641	-0.03416559982299805	0.9435289916992188	-0.10087000274658203	-0.06135139846801758	0.978218017578125	-0.0914312973022461	-0.07436289978027344	0.9646859741210938	-0.08247239685058594	-0.07013369750976563	0.9438480224609375	-0.08824179840087891	-0.033670398712158205	0.9553099975585938	-0.04095819854736328	-0.09089469909667969	0.9465440063476562	-0.050043701171875	-0.07464409637451172	0.9538989868164063	-0.060409900665283206	-0.060000598907470705	0.9608099975585938	-0.07819229888916016	-0.03843730163574219	0.9742239990234375	-0.12395700073242187	0.0010766099691390991	1.0245999755859374
11	0.36666666666666664	-0.09750650024414062	-0.07351719665527344	0.9803489990234375	-0.11937300109863282	-0.07549510192871094	0.9737990112304687	-0.14003399658203125	-0.058400100708007815	0.98156298828125	-0.13349099731445313	-0.03316780090332031	0.9991199951171875	-0.12997999572753907	-0.11780899810791015	0.9071090087890625	-0.1304199981689453	-0.0977696990966797	0.9162869873046875	-0.13049600219726562	-0.07592870330810547	0.9264840087890625	-0.1285659942626953	-0.03847689819335937	0.9439320068359375	-0.11400800323486328	-0.0630265007019043	0.968718994140625	-0.10776100158691407	-0.07972319793701171	0.9572160034179688	-0.10492800140380859	-0.07400559997558594	0.9324810180664063	-0.10563999938964844	-0.03396770095825195	0.9435900268554688	-0.10060800170898437	-0.06096689987182617	0.9775859985351563	-0.09113410186767579	-0.07435639953613281	0.9648770141601563	-0.082193603515625	-0.06988960266113281	0.9438720092773437	-0.08809609985351563	-0.033203201293945314	0.955333984375	-0.040669200897216796	-0.09065399932861327	0.9465020141601562	-0.049783599853515624	-0.07444419860839843	0.95389599609375	-0.060184501647949216	-0.05990459823608398	0.9609639892578125	-0.07824939727783203	-0.03803559875488281	0.9744769897460938	-0.12369999694824219	0.001315029978752136	1.024530029296875
12	0.4	-0.09783480072021485	-0.0733832015991211	0.9807449951171875	-0.11903399658203125	-0.07522660064697266	0.9739520263671875	-0.13987300109863282	-0.05806129837036133	0.9813690185546875	-0.13357899475097657	-0.03354249954223633	0.9995809936523438	-0.12939399719238281	-0.11781500244140625	0.9070700073242187	-0.12991799926757813	-0.09778379821777344	0.9162269897460937	-0.13018699645996093	-0.07590529632568359	0.926531005859375	-0.1283520050048828	-0.038497600555419925	0.9438920288085938	-0.1135979995727539	-0.06272750091552734	0.9692379760742188	-0.10736699676513672	-0.07972769927978515	0.9576649780273437	-0.10450499725341797	-0.07399449920654297	0.9325750122070312	-0.10524199676513672	-0.03385020065307617	0.9435889892578125	-0.10005699920654297	-0.061153400421142576	0.9774719848632812	-0.09072119903564453	-0.07437239837646484	0.9643740234375	-0.08180439758300781	-0.06978410339355469	0.9437319946289062	-0.08782920074462891	-0.03310139846801758	0.9553140258789062	-0.04032740020751953	-0.09043879699707032	0.9465499877929687	-0.04942399978637695	-0.07420989990234375	0.9539600219726563	-0.059883499145507814	-0.05951750183105469	0.9610339965820313	-0.07783110046386718	-0.038017398834228514	0.97427197265625	-0.12346399688720704	0.0010197000503540039	1.0244000244140625
13	0.43333333333333335	-0.09704689788818359	-0.07334519958496094	0.98035400390625	-0.11890499877929687	-0.07531500244140625	0.9738410034179688	-0.14007200622558594	-0.05854719924926758	0.981219970703125	-0.13358200073242188	-0.03321229934692383	0.9991530151367187	-0.12921000671386718	-0.11780999755859375	0.9069949951171875	-0.1297449951171875	-0.09776290130615234	0.9161300048828125	-0.1300260009765625	-0.07580709838867188	0.9265780029296875	-0.1282070007324219	-0.03846820068359375	0.9438380126953125	-0.11307199859619141	-0.06366579818725586	0.9688790283203125	-0.10734300231933594	-0.0795105972290039	0.9574580078125	-0.10436100006103516	-0.07398799896240234	0.9325009765625	-0.10520200347900391	-0.03386470031738281	0.9435230102539063	-0.09997350311279297	-0.06099700164794922	0.97810302734375	-0.09051589965820313	-0.0742863998413086	0.9647890014648437	-0.08152159881591797	-0.0696803970336914	0.9435040283203125	-0.0875895004272461	-0.03313579940795899	0.9551380004882812	-0.04024570083618164	-0.09046669769287109	0.9465609741210937	-0.049320701599121095	-0.07418470001220703	0.9538809814453125	-0.059763301849365236	-0.059425498962402346	0.9608510131835938	-0.07782330322265625	-0.037858501434326175	0.9744849853515625	-0.1229219970703125	0.001102740049362182	1.0239199829101562
14	0.4666666666666667	-0.0970395965576172	-0.07312799835205078	0.98022802734375	-0.11884200286865235	-0.0754218978881836	0.9736740112304687	-0.14012399291992186	-0.05829940032958984	0.9807830200195312	-0.13305799865722656	-0.03330149841308594	0.9988179931640625	-0.12928700256347656	-0.11787799835205078	0.9069240112304687	-0.129781005859375	-0.09792369842529297	0.9160449829101562	-0.13011300659179686	-0.07586620330810546	0.9261320190429687	-0.12840199279785156	-0.038509998321533206	0.9436510009765625	-0.11323500061035156	-0.06310250091552734	0.9682830200195313	-0.10743900299072266	-0.07960780334472656	0.957530029296875	-0.10452200317382812	-0.07396900177001953	0.93235498046875	-0.10528800201416015	-0.03390179824829102	0.9432559814453125	-0.10028199768066406	-0.061238800048828125	0.9778170166015625	-0.09074659729003906	-0.07429759979248046	0.9646199951171875	-0.08156340026855469	-0.06966110229492188	0.9431649780273438	-0.08775039672851563	-0.03305189895629883	0.9550490112304687	-0.04040340042114258	-0.09058270263671875	0.9463189697265625	-0.04947190093994141	-0.07432240295410156	0.9537620239257812	-0.05986909866333008	-0.059703300476074216	0.960614013671875	-0.07779599761962891	-0.0380077018737793	0.974135986328125	-0.1228280029296875	0.0007974309921264641	1.0236799926757814
15	0.5	-0.09725620269775391	-0.07346710205078125	0.9799819946289062	-0.11894599914550781	-0.07528739929199219	0.9735369873046875	-0.13931900024414062	-0.05830339813232422	0.981405029296875	-0.13360499572753906	-0.033650299072265626	0.99889501953125	-0.12934599304199218	-0.1180250015258789	0.9067750244140625	-0.1298509979248047	-0.09789369964599609	0.9159140014648437	-0.13005000305175782	-0.07599929809570312	0.9260700073242187	-0.12822700500488282	-0.03856060028076172	0.9436699829101562	-0.1136510009765625	-0.06314889907836914	0.9681480102539063	-0.10742800140380859	-0.07997689819335937	0.9572059936523437	-0.10454100036621093	-0.07413189697265625	0.9320999755859375	-0.10532099914550781	-0.033994300842285156	0.9432109985351562	-0.10008599853515625	-0.061047500610351565	0.9772109985351562	-0.0906050033569336	-0.07454389953613282	0.9643200073242187	-0.08164540100097656	-0.06982920074462891	0.94306201171875	-0.08778089904785157	-0.033222000122070314	0.9548179931640625	-0.04056349945068359	-0.09078160095214843	0.94606298828125	-0.049601299285888675	-0.07444740295410156	0.9533699951171875	-0.05995429992675781	-0.059868698120117185	0.9605139770507812	-0.07774469757080078	-0.038197498321533206	0.9738389892578125	-0.12337200164794922	0.000927594006061554	1.0239500122070313
16	0.5333333333333333	-0.0973115997314453	-0.07382060241699219	0.9799580078125	-0.11891400146484375	-0.07594020080566406	0.9733380126953125	-0.1392469940185547	-0.05871670150756836	0.9814810180664062	-0.13241299438476561	-0.03376839828491211	0.99843701171875	-0.12941000366210936	-0.11842400360107422	0.9068200073242187	-0.12994500732421874	-0.09831050109863282	0.9159500122070312	-0.13017799377441405	-0.07636940002441406	0.9261430053710937	-0.12832000732421875	-0.038935699462890626	0.943385009765625	-0.11363600158691406	-0.0633750991821289	0.9680700073242188	-0.10729000091552734	-0.08029319763183594	0.9567050170898438	-0.10465399932861329	-0.07445829772949218	0.9321680297851562	-0.10538500213623046	-0.034392601013183595	0.9430020141601563	-0.10002899932861328	-0.06118539810180664	0.9771589965820312	-0.09089219665527344	-0.07458300018310547	0.9646209716796875	-0.08184739685058594	-0.07025360107421875	0.9432940063476563	-0.08795429992675781	-0.03405780029296875	0.9549000244140625	-0.04065399932861328	-0.09113369750976562	0.946010009765625	-0.04967589950561523	-0.07481159973144531	0.9533980102539062	-0.060013301849365236	-0.06019779968261719	0.9604539794921875	-0.07779769897460938	-0.038595001220703126	0.9736810302734376	-0.12365499877929688	0.001031049966812133	1.0244100341796876
